<svg width="600" height="600" xmlns="http://www.w3.org/2000/svg" xml:space="preserve" style="enable-background:new 0 0 600 600;" version="1.1">
 <style type="text/css">.st0{fill:none;stroke:#007F00;stroke-width:68;}
	.st1{opacity:0.5;fill:none;stroke:#007F00;stroke-width:68;enable-background:new    ;}
	.st2{opacity:0.5;fill:none;stroke:#AAFF56;stroke-width:68;enable-background:new    ;}
	.st3{fill:none;stroke:#6AA36A;stroke-width:68;}</style>

 <g>
  <title>Layer 1</title>
  <path d="m294.2,54.3c38.3,0 74.7,8.3 107.4,23.1c87.8,39.9 148.8,127.3 148.8,228.7c0,102.9 -62.8,191.4 -152.8,230.4c-31.6,13.7 -66.6,21.3 -103.4,21.3c-141.5,0.1 -256.2,-112.6 -256.2,-251.7s114.7,-251.8 256.2,-251.8z" class="st0" id="svg_1"/>
  <path d="m378.3,-27.7" class="st1" id="svg_5"/>
  <path d="m5.5,-42.5" class="st0" id="svg_9"/>
  <path d="m475.9,128.9" class="st2" id="svg_15_4_"/>
  <path d="m393.4,69.5" class="st2" id="svg_15_3_"/>
  <ellipse ry="223" rx="223" id="svg_3" cy="305.953125" cx="293.5" stroke-width="1.5" stroke="#000" fill="#fff"/>
 </g>
 <g>
  <title>Layer 2</title>
  <path id="svg_2" d="m416.5,86.5c0,0 143,70 136,236s-203,232 -203,232" class="st3"/>
 </g>
 <g>
  <title>background</title>
  <rect fill="none" id="canvas_background" height="803" width="1662" y="-1" x="-1"/>
 </g>
</svg>