<?xml version="1.0" encoding="utf-8"?>
<!-- Generator: Adobe Illustrator 22.1.0, SVG Export Plug-In . SVG Version: 6.00 Build 0)  -->
<svg version="1.1" id="图层_1" xmlns="http://www.w3.org/2000/svg" xmlns:xlink="http://www.w3.org/1999/xlink" x="0px" y="0px"
	 viewBox="0 0 600 600" style="enable-background:new 0 0 600 600;" xml:space="preserve">
<style type="text/css">
	.st0{fill:none;stroke:#444444;stroke-width:30;}
</style>
<g>
	<title>Layer 1</title>
	<path id="svg_1" class="st0" d="M319.1,576.1c27.5-16.6,30.9-18,35.9-23.8c7.9-9.3,9.2-14,12-25c1.8-7,1.2-13.1,1.2-19
		c0-8.3-0.7-15.7-3.6-21.4c-3.1-6.2-8.2-12.1-12-14.3c-4.6-2.7-8.4-3.5-17.9-7.1c-6-2.3-10.8-3.2-23.9-4.8c-8.4-1-15.6-2.2-26.3-3.6
		c-8.4-1.1-16.7-3.7-23.9-7.1c-10.7-5-15.8-5.6-20.3-9.5c-5.1-4.4-9.2-8.6-15.6-17.8c-3.4-4.9-6.1-10.7-7.2-14.3
		c-2.6-8.3-2.4-13.1-2.4-17.8c0-5.9,2.4-14.3,6-20.2c3.6-5.9,5.8-9.7,10.8-14.3c6.9-6.3,12.2-9.1,16.7-11.9
		c5.1-3.1,10.1-7,19.1-11.9c5.7-3.1,10.8-4.8,17.9-5.9c7.2-1.2,13.2-1.1,20.3-2.4c6-1.1,14.6-1.1,26.3-3.6
		c7.4-1.6,14.6-2.9,21.5-5.9c8.8-3.9,14.4-8.3,20.3-11.9c6-3.6,12.6-7.8,17.9-14.3c5.5-6.6,9.3-12,13.2-19c3.4-6.1,7.9-14,10.8-22.6
		c1.6-4.6,3.4-10.8,2.4-16.6c-0.6-3.7-1.9-7.7-6-10.7c-2.2-1.6-8.2-5-12-7.1c-4.6-2.7-8.5-3-17.9-4.8c-4.8-0.9-9.7-2.1-14.4-3.6
		c-6.1-2-10.8-4.8-14.4-7.1c-3.6-2.4-8.8-5.6-12-10.7c-1.4-2.3-2.9-3.2-3.6-4.8c-0.9-2.2,0-3.6,0-5.9c0-1.2,2.4-3.6,4.8-5.9
		c1.2-1.2,3.6-4.8,8.4-7.1c4.8-2.4,8.2-6.2,16.7-10.7c7.1-3.8,14.4-4.6,26.3-9.5c8.4-3.5,15.7-5.4,21.5-7.1
		c6.2-1.8,13.2-7.1,20.3-10.7c7.2-3.6,14.6-7.9,23.9-14.3c4.9-3.4,11.8-9.7,16.7-14.3c6.9-6.3,15.6-13.1,20.3-17.8
		c3.6-3.6,5.8-7.9,8.4-15.4c2-5.7,3-10.6,3.6-15.4c0.6-4.7,0-7.1-1.2-11.9s-2.4-7.1-6-10.7c-2.4-2.4-7.3-4.2-12-5.9
		c-2.5-0.9-13.2-1.2-16.7-1.2c-6,0-15.4,1.5-20.3,3.6c-7,2.9-14.3,5.1-22.7,7.1c-5.9,1.4-14.5,3.3-21.5,7.1
		c-6.1,3.3-16.8,8.2-22.7,13.1c-8.5,7-12.8,13.3-19.1,20.2c-4.6,5-10.4,13.2-12,19c-1,3.6-2.1,7.2-3.6,10.7c-1,2.5-1.2,4.8-1.2,8.3
		c0,2.4,1.1,4.8,1.2,5.9c0.6,4.9,2,7.4,3.6,9.5c1,1.4,1.2,4.8,3.6,8.3c2.4,3.6,3,6.2,4.8,9.5c2.8,5.3,5,7.1,6,9.5
		c1.4,3.5,5.4,10.6,6,14.3c0.6,3.5,1.2,5.9,1.2,14.3c0,5.9,0.5,10.7,0,16.6c-0.6,7.2-4.1,14.3-4.8,17.8c-1.2,6.3-4.4,13.3-7.2,17.8
		c-6.3,10.1-9.3,13.3-15.6,20.2c-4.6,5-8.2,9.8-14.4,14.3c-7,5.1-11.3,8.9-15.6,13.1s-9.7,8.1-16.7,13.1c-4.9,3.4-6.6,7.6-9.6,10.7
		c-4.1,4.3-7.2,8.3-9.6,11.9s-7.8,13-8.4,19c-0.6,5.9-0.6,9.4-1.2,17.8c-0.8,10.7,1.1,15.5,0,26.1c-0.6,6-1.2,9.5-1.2,14.3
		c0,5.9-0.4,9.6-1.2,14.3c-0.6,3.7-3.2,6.6-6,11.9c-1.8,3.3-2.8,6.3-4.8,9.5c-3.6,5.7-10.1,11.2-13.2,14.3
		c-3.1,3-11.7,12.3-16.7,15.4c-4.6,2.8-10.2,6.4-14.4,10.7c-3,3.1-6.9,7.6-12,10.7c-6.8,4.2-11.7,7.6-16.7,10.7
		c-6.8,4.2-11.7,6.4-21.5,11.9c-7,3.9-14.5,4.3-21.5,7.1c-4.9,2-16.7,7.1-21.5,8.3c-4.8,1.2-10.8,3.6-14.4,4.8
		c-3.6,1.2-6.1,3.1-10.8,4.8c-2.5,0.9-4.9,3.4-7.2,4.8c-7.5,4.3-8.9,7.6-10.8,9.5c-1.9,1.9-5.5,3-9.6,5.9c-2.2,1.6-4.6,3.8-8.4,5.9
		c-2.3,1.3-3,2.4-3.6,4.8c-0.6,2.6-2.6,5.9-3.6,8.3c-1.4,3.5-2.4,8.3-4.8,14.3l-1.2,5.9l-1.2,4.8v2.4"/>
</g>
</svg>
