<?xml version="1.0" encoding="utf-8"?>
<!-- Generator: Adobe Illustrator 22.1.0, SVG Export Plug-In . SVG Version: 6.00 Build 0)  -->
<svg version="1.1" id="图层_1" xmlns="http://www.w3.org/2000/svg" xmlns:xlink="http://www.w3.org/1999/xlink" x="0px" y="0px"
	 viewBox="0 0 600 600" style="enable-background:new 0 0 600 600;" xml:space="preserve">
<style type="text/css">
	.st0{fill:none;stroke:#7777A5;stroke-width:30;}
	.st1{fill:none;stroke:#242454;stroke-width:30;}
	.st2{opacity:0.5;fill:none;stroke:#01013A;stroke-width:30;enable-background:new    ;}
	.st3{fill:none;stroke:#DD3C7E;stroke-width:30;}
	.st4{fill:none;stroke:#4C3EDB;stroke-width:30;}
	.st5{fill:none;stroke:#583EDB;stroke-width:30;}
	.st6{fill:none;stroke:#3FD8D8;stroke-width:30;}
	.st7{fill:none;stroke:#3EDB6A;stroke-width:30;}
	.st8{fill:none;stroke:#DBDB3E;stroke-width:30;}
</style>
<g>
	<title>Layer 1</title>
	<path id="svg_3_2_" class="st0" d="M89.6,306.5"/>
	<path id="svg_3_1_" class="st0" d="M116.1,237.5"/>
	<path id="svg_4_2_" class="st0" d="M160.4,321.5"/>
	<path id="svg_4_1_" class="st0" d="M169.2,251.3"/>
	<path id="svg_5_2_" class="st0" d="M225.6,330.3"/>
	<path id="svg_5_1_" class="st0" d="M231.1,262.6"/>
	<path id="svg_6_2_" class="st0" d="M294.1,331.6"/>
	<path id="svg_6_1_" class="st0" d="M294.1,267.6"/>
	<path id="svg_7_2_" class="st0" d="M348.2,334.1"/>
	<path id="svg_7_1_" class="st0" d="M344.9,266.4"/>
	<path id="svg_8_2_" class="st0" d="M407.9,327.8"/>
	<path id="svg_8_1_" class="st0" d="M401.3,262.6"/>
	<path id="svg_9_2_" class="st0" d="M462.6,302.6"/>
	<path id="svg_9_1_" class="st0" d="M456.5,260.1"/>
	<path id="svg_10_2_" class="st1" d="M521.7,319"/>
	<path id="svg_10_1_" class="st1" d="M511.8,255.1"/>
	<path id="svg_2_2_" class="st2" d="M589,303.1"/>
	<path id="svg_2_1_" class="st2" d="M9.7,274.3"/>
</g>
<line class="st3" x1="83.5" y1="271.3" x2="68.1" y2="344"/>
<line class="st3" x1="531.1" y1="271.3" x2="532.2" y2="340.2"/>
<line class="st4" x1="134.4" y1="278.8" x2="126.6" y2="352.8"/>
<line class="st3" x1="195.2" y1="283.8" x2="191.9" y2="356.6"/>
<line class="st5" x1="258.2" y1="285.1" x2="259.3" y2="355.3"/>
<line class="st6" x1="334.4" y1="283.8" x2="337.7" y2="355.3"/>
<line class="st7" x1="404" y1="281.3" x2="404" y2="350.3"/>
<line class="st8" x1="467" y1="273.8" x2="470.4" y2="347.8"/>
<path class="st1" d="M9.5,329c143.3,56.4,556.8,24.7,578,10"/>
</svg>
