<?xml version="1.0" encoding="utf-8"?>
<!-- Generator: Adobe Illustrator 22.1.0, SVG Export Plug-In . SVG Version: 6.00 Build 0)  -->
<svg version="1.1" id="图层_1" xmlns="http://www.w3.org/2000/svg" xmlns:xlink="http://www.w3.org/1999/xlink" x="0px" y="0px"
	 viewBox="0 0 600 600" style="enable-background:new 0 0 600 600;" xml:space="preserve">
<style type="text/css">
	.st0{fill:none;stroke:#000000;stroke-width:30;}
	.st1{fill:none;stroke:#FFFFFF;stroke-width:30;}
	.st2{fill:none;stroke:#FFFFFF;stroke-width:55;}
</style>
<g>
	<title>Layer 1</title>
	<path id="svg_1_4_" class="st0" d="M330.5,282.6c-53.5-10.4-95-57.6-100.1-116.1"/>
	<path id="svg_1_1_" class="st0" d="M352.7,284.7"/>
	<path id="svg_1_2_" class="st0" d="M229.9,149.5c2.3-70,56.4-126,122.8-126c67.8,0,122.8,58.5,122.8,130.6
		c0,66.4-46.6,121.2-106.9,129.5"/>
	<path id="svg_2_1_" class="st0" d="M140.9,168.8c-5.2,24.7-25.7,43.2-50.1,43.2c-28.4,0-51.4-24.9-51.4-55.6s23-55.6,51.4-55.6
		c24.8,0,45.6,19.1,50.4,44.4"/>
	<line id="svg_3" class="st0" x1="134.6" y1="133.6" x2="227.7" y2="133.6"/>
	<line id="svg_4" class="st0" x1="129.2" y1="182.5" x2="232" y2="182.5"/>
	<line id="svg_5" class="st0" x1="313.2" y1="275.6" x2="313.2" y2="590.2"/>
	<line id="svg_6" class="st0" x1="383.5" y1="277.9" x2="383.5" y2="586.5"/>
	<line id="svg_7" class="st0" x1="371.6" y1="584.5" x2="466" y2="584.5"/>
	<line id="svg_8" class="st0" x1="325.1" y1="583.3" x2="160.5" y2="583.3"/>
	<path id="svg_9_2_" class="st1" d="M272.1,156.4"/>
	<path id="svg_9_1_" class="st1" d="M116.5,155.5"/>
	<path id="svg_10_2_" class="st2" d="M348.9,361.9"/>
	<path id="svg_10_1_" class="st2" d="M348.9,242.7"/>
</g>
</svg>
