<svg id="图层_1" data-name="图层 1" xmlns="http://www.w3.org/2000/svg" viewBox="0 0 40.32 85.65"><ellipse cx="375.37" cy="315.54" rx="4.69" ry="8.91" transform="translate(-455 -79.14) rotate(-21.6)" style="stroke:#000;stroke-miterlimit:10"/><ellipse cx="375.32" cy="314.94" rx="2.9" ry="5.46" transform="translate(-448.77 -96.22) rotate(-19.49)" style="fill:#f7931e;stroke:#000;stroke-miterlimit:10"/><polyline points="4.92 70.66 20.81 6.98 22.37 8.15" style="fill:#f7931e;stroke:#000;stroke-miterlimit:10"/><polyline points="9.3 67.5 25.19 3.82 27.02 4.72 23.45 3.82 7.56 67.5" style="fill:#f7931e;stroke:#000;stroke-miterlimit:10"/><polyline points="12.78 70.89 28.67 7.2 26.93 4.95 11.04 68.63" style="fill:#f7931e;stroke:#000;stroke-miterlimit:10"/><polyline points="15.51 82.16 31.4 18.48 29.5 15.76 30.65 11.15 14.76 74.83" style="fill:#f7931e;stroke:#000;stroke-miterlimit:10"/><line x1="30.74" y1="10.92" x2="28.76" y2="6.98" style="fill:none;stroke:#000;stroke-miterlimit:10"/><ellipse cx="370.76" cy="253.81" rx="14.08" ry="4.26" transform="translate(-318.62 325.42) rotate(-78.21)" style="stroke:#000;stroke-miterlimit:10"/><ellipse cx="371.08" cy="253.82" rx="8.48" ry="2.67" transform="translate(-315.18 329.03) rotate(-78.8)" style="fill:#f7931e;stroke:#000;stroke-miterlimit:10"/><polyline points="9.59 1.57 38.8 58.97 37.82 62.85" style="fill:#f7931e;stroke:#000;stroke-miterlimit:10"/><polyline points="10.19 13.98 39.4 71.38 38.5 76.05 39.81 66.75 10.6 9.35" style="fill:#f7931e;stroke:#000;stroke-miterlimit:10"/><polyline points="7.62 22.45 36.82 79.85 38.4 75.75 9.2 18.35" style="fill:#f7931e;stroke:#000;stroke-miterlimit:10"/><polyline points="1.14 27.06 30.34 84.46 32.2 80.05 34.31 84.21 5.11 26.81" style="fill:#f7931e;stroke:#000;stroke-miterlimit:10"/><line x1="34.22" y1="84.18" x2="36.12" y2="78.46" style="fill:#f7931e;stroke:#000;stroke-miterlimit:10"/></svg>