<svg id="图层_1" data-name="图层 1" xmlns="http://www.w3.org/2000/svg" viewBox="0 0 92 59"><ellipse cx="46" cy="29.5" rx="45.5" ry="29" style="fill:#22b573;stroke:#000;stroke-miterlimit:10"/><ellipse cx="47" cy="30" rx="41.5" ry="26.5" style="fill:lime;stroke:#000;stroke-miterlimit:10"/><ellipse cx="41.51" cy="13.86" rx="7.13" ry="1.86" style="fill:#22b573;stroke:#000;stroke-miterlimit:10;stroke-width:0.25px"/><ellipse cx="41.27" cy="15.48" rx="7.13" ry="1.86" style="fill:#22b573;stroke:#000;stroke-miterlimit:10;stroke-width:0.25px"/><ellipse cx="41.27" cy="17.34" rx="7.13" ry="1.86" style="fill:#22b573;stroke:#000;stroke-miterlimit:10;stroke-width:0.25px"/><ellipse cx="27.37" cy="34.75" rx="7.13" ry="1.86" style="fill:#22b573;stroke:#000;stroke-miterlimit:10;stroke-width:0.25px"/><ellipse cx="27.13" cy="36.37" rx="7.13" ry="1.86" style="fill:#22b573;stroke:#000;stroke-miterlimit:10;stroke-width:0.25px"/><ellipse cx="27.13" cy="38.23" rx="7.13" ry="1.86" style="fill:#22b573;stroke:#000;stroke-miterlimit:10;stroke-width:0.25px"/><ellipse cx="71.6" cy="22.21" rx="7.13" ry="1.86" style="fill:#22b573;stroke:#000;stroke-miterlimit:10;stroke-width:0.25px"/><ellipse cx="71.36" cy="23.83" rx="7.13" ry="1.86" style="fill:#22b573;stroke:#000;stroke-miterlimit:10;stroke-width:0.25px"/><ellipse cx="71.36" cy="25.69" rx="7.13" ry="1.86" style="fill:#22b573;stroke:#000;stroke-miterlimit:10;stroke-width:0.25px"/><ellipse cx="57.35" cy="42.64" rx="7.13" ry="1.86" style="fill:#22b573;stroke:#000;stroke-miterlimit:10;stroke-width:0.25px"/><ellipse cx="57.1" cy="44.27" rx="7.13" ry="1.86" style="fill:#22b573;stroke:#000;stroke-miterlimit:10;stroke-width:0.25px"/><ellipse cx="57.1" cy="46.13" rx="7.13" ry="1.86" style="fill:#22b573;stroke:#000;stroke-miterlimit:10;stroke-width:0.25px"/><polyline points="34.14 38.94 50.22 45.64 49.87 44.28 34.14 38.24" style="fill:#22b573;stroke:#000;stroke-miterlimit:10;stroke-width:0.25px"/><polyline points="28.21 32.89 35.28 18.35 36.89 18.8 29.23 32.67" style="fill:#22b573;stroke:#000;stroke-miterlimit:10;stroke-width:0.25px"/><polyline points="48.39 15.48 64.61 21.98 64.12 22.91 48.39 16.3" style="fill:#22b573;stroke:#000;stroke-miterlimit:10;stroke-width:0.25px"/><polyline points="68.74 27.55 58.95 40.84 60.7 41 69.87 27.55" style="fill:#22b573;stroke:#000;stroke-miterlimit:10;stroke-width:0.25px"/></svg>