<svg id="图层_1" data-name="图层 1" xmlns="http://www.w3.org/2000/svg" viewBox="0 0 126.19 95"><path d="M489.15,399.3c4.56,9.72,8.47,19.88,23,26.46,10.83,4.89,23.37,5.91,24.13,4.87,1.16-1.59-24.95-8.51-23-14.27.61-1.84,4-3.33,7.13-3.48,10.85-.53,18.45,15.07,21.93,14.27,2.73-.63,3.15-11.45-6-16.36-3.43-1.83-7.55-2.5-8.23-4.87-.53-1.87,1.2-4.3,3.84-4.88,5.15-1.12,13.29,4.94,17,8.36,6.11,5.63,6.4,9.81,10.41,10.09,2.74.2,6.52-1.47,7.13-3.48,1.89-6.24-28.13-11.52-26.86-19.14.44-2.66,4.65-5.42,8.77-5.57,12.17-.47,19.32,21.9,28.51,21.23,4.82-.35,7.91-6.88,8.77-10.79,6.66-30.28-84.22-68.76-91-64.4-4.84,3.1,42.65,35.83,40,37.25s-50.33-32.85-53.18-31.33,43.82,39.57,42.22,40.38S475,346.15,470.51,348.13c-4.69,2.09,40.39,48,39.48,48.39s-43.5-46.61-48.8-44.91C458.14,352.59,474.27,367.57,489.15,399.3Z" transform="translate(-460.31 -336.5)" style="fill:#4400f4;stroke:#29abe2;stroke-miterlimit:10"/></svg>