<svg id="图层_1" data-name="图层 1" xmlns="http://www.w3.org/2000/svg" viewBox="0 0 140 68"><ellipse cx="26" cy="18.5" rx="4" ry="2.5" style="fill:#29abe2;stroke:#000;stroke-miterlimit:10"/><ellipse cx="14" cy="43.5" rx="5" ry="2.5" style="fill:#29abe2;stroke:#000;stroke-miterlimit:10"/><ellipse cx="123.5" cy="30" rx="5.5" ry="4" style="fill:#29abe2;stroke:#000;stroke-miterlimit:10"/><path d="M474.59,199.56l9.59-.92c13-1.07,65.81-11.18,84.68-28,1.39-1.23,5.38-5,7.19-4.59s.36,5.32,0,6.43c-4.84,15-59,39.84-99.06,33.53-5.82-.91-16.39-3.29-16-4.59C461.18,200.86,465.66,200.42,474.59,199.56Z" transform="translate(-444.5 -165.5)" style="fill:#29abe2;stroke:#000;stroke-miterlimit:10"/><path d="M464.88,218l10.5-.49c14.26-.58,72-6,92.71-15,1.52-.66,5.89-2.68,7.88-2.46s.39,2.85,0,3.45c-5.31,8.06-64.63,21.38-108.46,18-6.37-.49-17.95-1.77-17.5-2.47C450.2,218.71,455.1,218.47,464.88,218Z" transform="translate(-444.5 -165.5)" style="fill:#29abe2;stroke:#000;stroke-miterlimit:10"/><path d="M461.29,227.92l11.49-.63c15.6-.73,78.85-7.64,101.47-19.13,1.66-.85,6.44-3.41,8.62-3.14s.43,3.63,0,4.39c-5.81,10.27-70.74,27.21-118.71,22.9-7-.62-19.64-2.24-19.15-3.13C445.22,228.81,450.58,228.51,461.29,227.92Z" transform="translate(-444.5 -165.5)" style="fill:#29abe2;stroke:#000;stroke-miterlimit:10"/></svg>