<svg id="图层_1" data-name="图层 1" xmlns="http://www.w3.org/2000/svg" viewBox="0 0 98.3 54"><ellipse cx="49.15" cy="27" rx="48.65" ry="26.5" style="fill:#ffea2a;stroke:#000;stroke-miterlimit:10"/><path d="M771,262.23c.93.32,5.92-24.31,8.73-23.68s.87,23.49,3.36,24,6.67-23.61,9.41-23.11,1.54,22.49,3.81,22.82,5.45-22,7.84-21.68,1.91,20.7,3.58,20.83,3.13-20.5,5.83-20.54,3.61,18.77,6.5,18.83,5.23-17.87,4.92-18-2.71,13.13-4.48,12.84c-2-.33-.75-18.07-4.25-19.11-2.51-.75-5.2,7.72-7.84,6.84s-2.24-10.61-3.81-10.84c-2.25-.32-5,19.35-7.17,19.12s-1.88-22.18-4.48-22.54-5.15,19.66-8.07,19.4c-3.09-.28-2.82-23.07-5.6-23.4C775.65,223.58,769.83,261.85,771,262.23Z" transform="translate(-748.7 -216)" style="fill:#29abe2;stroke:#000;stroke-miterlimit:10"/></svg>