<svg id="图层_1" data-name="图层 1" xmlns="http://www.w3.org/2000/svg" viewBox="0 0 232.87 199.27"><ellipse cx="84.66" cy="137.7" rx="84.66" ry="61.57" style="fill:#f7931e"/><ellipse cx="85.24" cy="137.19" rx="74.73" ry="53.87" style="fill:#e2ff1f;stroke:#000;stroke-miterlimit:10"/><ellipse cx="97.5" cy="125.9" rx="34.45" ry="27.19" style="fill:#ff5fd4;stroke:#000;stroke-miterlimit:10"/><polyline points="15.57 102.11 22.88 107.49 32.95 98.7 26.2 93.17" style="fill:#ffea2a"/><polyline points="69.97 189.93 69.97 198.34 89.34 199.17 89.91 190.03" style="fill:#ffea2a"/><polyline points="158.33 125.9 167.76 125.9 169.32 142.47 159.62 142.47" style="fill:#ffea2a"/><path d="M503.77,387.36c10,2.87,19.49,6.45,38,.51,13.75-4.42,27.14-12.39,27.35-13.56.33-1.78-30.16,11.88-31.34,7-.37-1.55,2.29-4.8,5.4-7,10.82-7.78,27.1-3.37,30.22-6.25,2.45-2.27-3-9.23-15.08-5.95-4.49,1.22-9.08,3.63-11.07,2.64-1.56-.79-1.11-3.48,1.28-5.64,4.67-4.24,16.29-6.08,22-6.52,9.33-.72,11.89,1.65,16.15-.93,2.92-1.76,5.88-5.38,5.41-7-1.46-5.14-35.07,12.21-37.92,6.64-1-1.94,1.81-6.53,5.95-9.46,12.2-8.64,31.69.25,40.74-6.48,4.74-3.52,4.35-9.67,3.11-12.67-9.67-23.25-123.63,15.41-128.22,22.76-3.27,5.23,63.17-7.18,61.24-4.5s-69.41,14.29-71.49,17.19,66.4-5.69,65.19-4.08-70.3,10.34-73.77,14.61c-3.66,4.51,67.49,1.9,66.75,2.74s-69.9,1.12-74.4,5.81C446.6,379.85,471.26,378,503.77,387.36Z" transform="translate(-372.33 -314.76)" style="fill:#4400f4;stroke:#29abe2;stroke-miterlimit:10"/></svg>