<?xml version="1.0" encoding="utf-8"?>
<!-- Generator: Adobe Illustrator 22.0.0, SVG Export Plug-In . SVG Version: 6.00 Build 0)  -->
<svg version="1.1" id="图层_1" xmlns="http://www.w3.org/2000/svg" xmlns:xlink="http://www.w3.org/1999/xlink" x="0px" y="0px"
	 viewBox="0 0 50 50" style="enable-background:new 0 0 50 50;" xml:space="preserve">
<style type="text/css">
	.st0{opacity:0.5;fill:#BBBBBB;enable-background:new    ;}
	.st1{fill:none;stroke:#EEFF9F;}
	.st2{fill:none;stroke:#7FFF00;}
	.st3{fill:#BBBBBB;}
	.st4{fill:none;stroke:#FF0000;}
	.st5{fill:none;stroke:#0000BF;}
	.st6{fill:#BBBBBB;stroke:#999999;stroke-width:1.5;}
	.st7{fill:#70C08C;stroke:#231815;stroke-linecap:round;stroke-miterlimit:10;}
</style>
<title>DNA_P_Complex</title>
<path id="svg_15" class="st0" d="M39,27"/>
<line id="svg_24" class="st1" x1="33.5" y1="21.2" x2="33.5" y2="27.3"/>
<line id="svg_28" class="st2" x1="28" y1="17.4" x2="28" y2="27.2"/>
<path id="svg_16" class="st3" d="M39,26.7c-5.3-12.4-23.8-13.2-16.7-12.3"/>
<line id="svg_30" class="st4" x1="20.5" y1="16.1" x2="20.5" y2="27.1"/>
<line id="svg_32" class="st5" x1="15" y1="20.7" x2="15" y2="27.1"/>
<line id="svg_33" class="st4" x1="15" y1="27" x2="15" y2="33"/>
<path id="svg_18" class="st3" d="M10.9,26.6c3.8-12.4,17-13.2,12-12.3"/>
<line id="svg_35" class="st1" x1="6.4" y1="21.6" x2="6.4" y2="26.7"/>
<line id="svg_37" class="st4" x1="2.5" y1="27" x2="2.5" y2="37"/>
<line id="svg_36" class="st5" x1="2.5" y1="17.2" x2="2.5" y2="27.1"/>
<path id="svg_9" class="st6" d="M2.6,16.3c7.6,5.5,9,11,9,10.9C11.6,27.2-5,10.8,2.6,16.3z"/>
<line id="svg_26" class="st2" x1="33.5" y1="27.1" x2="33.5" y2="32.3"/>
<line id="svg_29" class="st1" x1="28" y1="27.2" x2="28" y2="36.4"/>
<path id="svg_17" class="st3" d="M39,26.7c-5.3,12.7-23.8,13.4-16.7,12.5"/>
<line id="svg_31" class="st5" x1="20.5" y1="27.2" x2="20.5" y2="38.2"/>
<path id="svg_19" class="st3" d="M10.9,26.7c3.7,12.7,16.5,13.4,11.6,12.5"/>
<line id="svg_34" class="st2" x1="6.4" y1="27" x2="6.4" y2="32.6"/>
<path id="svg_11" class="st6" d="M2,37.8c7.6-5.4,9-10.7,9-10.7C10.9,27-5.5,43.1,2,37.8z"/>
<line id="svg_20" class="st1" x1="47.3" y1="17.8" x2="47.3" y2="27"/>
<line id="svg_22" class="st5" x1="42.8" y1="22.4" x2="42.8" y2="26.9"/>
<path id="svg_8" class="st6" d="M48,16.1c-7.6,5.4-9,10.7-9,10.7S55.5,10.7,48,16.1z"/>
<line id="svg_21" class="st2" x1="47.3" y1="27" x2="47.3" y2="36.8"/>
<line id="svg_23" class="st4" x1="42.8" y1="26.8" x2="42.8" y2="31.3"/>
<path id="svg_1" class="st6" d="M48,37.9c-7.6-5.5-9-11-9-10.9C39,26.9,55.5,43.4,48,37.9z"/>
<path id="svg_25" class="st6" d="M48,16.1c-7.6,5.4-9,10.7-9,10.7S55.5,10.7,48,16.1z"/>
<path id="svg_27" class="st6" d="M48,37.9c-7.6-5.5-9-11-9-10.9C39,26.9,55.5,43.4,48,37.9z"/>
<ellipse class="st7" cx="11.6" cy="16" rx="9.9" ry="5.5"/>
</svg>
