<?xml version="1.0" encoding="utf-8"?>
<!-- Generator: Adobe Illustrator 22.0.0, SVG Export Plug-In . SVG Version: 6.00 Build 0)  -->
<svg version="1.1" id="图层_1" xmlns="http://www.w3.org/2000/svg" xmlns:xlink="http://www.w3.org/1999/xlink" x="0px" y="0px"
	 viewBox="0 0 50 50" style="enable-background:new 0 0 50 50;" xml:space="preserve">
<style type="text/css">
	.st0{fill:#70C08C;}
	.st1{fill:#70C08C;stroke:#231815;stroke-linecap:round;stroke-miterlimit:10;}
</style>
<title>Receptor_P_Complex</title>
<path class="st0" d="M11.6,10.1c0.4,0,0.7,0.3,0.8,0.5c0.7,0.7,1.9,1.2,4.4,2.2c1.7,0.7,4.3,1.6,7.9,1.8c2.7,0.1,5.4-0.3,7.9-1.2
	c3.1-0.9,4.6-1.4,5.9-2.6c0.4-0.3,0.7-0.7,1-0.7c0.8,0.2,1,3.2,0,5.6C39,17,38.2,17.8,37.2,19c-1,1.1-2.1,2.1-3.3,3
	c-1.2,0.9-5.7,2.4-7.9,2.4c-2,0-4-0.2-5.9-0.6c-2.2-0.5-3.3-0.7-4.6-1.5c-1.8-1.1-2.6-2.4-3.6-3.8c-1.2-1.8-2.2-3.3-2-5.3
	C10.1,11.8,10.8,10.1,11.6,10.1z"/>
<polygon class="st0" points="30.3,22.5 30.3,50 20.7,50 19.9,21.9 "/>
<ellipse class="st1" cx="25.1" cy="6.4" rx="14.8" ry="6.4"/>
</svg>
