<?xml version="1.0" encoding="utf-8"?>
<!-- Generator: Adobe Illustrator 22.1.0, SVG Export Plug-In . SVG Version: 6.00 Build 0)  -->
<svg version="1.1" id="图层_1" xmlns="http://www.w3.org/2000/svg" xmlns:xlink="http://www.w3.org/1999/xlink" x="0px" y="0px"
	 viewBox="0 0 600 600" style="enable-background:new 0 0 600 600;" xml:space="preserve">
<style type="text/css">
	.st0{fill:none;stroke:#00FF00;stroke-width:27;}
	.st1{fill:#7F0000;stroke:#7F3F00;stroke-width:27;}
	.st2{font-family:'TimesNewRomanPSMT';}
	.st3{font-size:56px;}
</style>
<g>
	<title>Layer 1</title>
	<path id="svg_4" class="st0" d="M35,254.1c25.9,20,31.5,22.1,40.2,28c5.4,3.7,12.7,5.8,20.7,10.7c5,3,11.5,6,18.2,8
		c6.3,1.9,11.3,4.7,15.6,6.7c4.9,2.2,11.7,3.8,16.9,5.3c3.9,1.2,7.7,2.9,10.4,4c3.8,1.6,10.3,4.7,15.6,5.3c5.1,0.7,9,2,15.6,2.7
		c5.2,0.5,9,0.7,14.3,1.3c6.4,0.8,11.7,0,15.6,0c3.9,0,7.7-0.7,14.3-1.3c5.2-0.5,11.6-1.6,15.6-2.7c6.4-1.7,14.3-2.5,19.5-4
		c3.9-1.2,9.2-2,16.9-4c4-1,8.7-3.4,13-5.3c4.9-2.2,10.2-4.4,15.6-6.7c3.8-1.6,7.8-2.7,13-5.3c5.2-2.7,10.4-5.3,14.3-6.7
		c7.8-2.7,11.8-2.4,15.6-4c5.4-2.3,9.1-2.5,18.2-5.3c3.9-1.2,9.1-2.2,13-2.7c5.3-0.7,10.3-2,18.2-2.7c3.9-0.3,7.8,0,16.9,0
		c3.9,0,10.3,1.5,15.6,2.7c6.5,1.5,10.5,2.4,14.3,4c5.4,2.3,10.4,4,15.6,6.7s8.8,5.6,11.7,8c3.6,3,8,3.7,13,6.7
		c4,2.4,8.2,3.1,11.7,5.3c1.6,1,3.7,3.3,6.5,4c2.5,0.6,3.9,1.3,5.2,1.3s2.2,0.6,3.9,1.3c1.2,0.5,4.1,0.3,6.5,1.3
		c1.7,0.7,5.2,1,6.5,1.3c2.8,0.7,3.7,2,7.8,2.7c2.6,0.4,6.3,0.6,9.1,1.3c1.3,0.3,3.9,0,5.2,0s2.6,0,3.9,0h1.3h1.3"/>
	<ellipse id="svg_1" class="st1" cx="570.5" cy="318.1" rx="16.9" ry="14.7"/>
	<ellipse id="svg_2" class="st1" cx="32.4" cy="260.8" rx="16.9" ry="14.7"/>
</g>
<text transform="matrix(1 0 0 1 12 212)" class="st2 st3">Cap</text>
<text transform="matrix(1 0 0 1 491 257)" class="st2 st3">A(n)</text>
</svg>
