<?xml version="1.0" encoding="utf-8"?>
<!-- Generator: Adobe Illustrator 22.1.0, SVG Export Plug-In . SVG Version: 6.00 Build 0)  -->
<svg version="1.1" id="图层_1" xmlns="http://www.w3.org/2000/svg" xmlns:xlink="http://www.w3.org/1999/xlink" x="0px" y="0px"
	 viewBox="0 0 600 600" style="enable-background:new 0 0 600 600;" xml:space="preserve">
<style type="text/css">
	.st0{fill:none;stroke:#FF0000;stroke-width:27;}
	.st1{fill:none;stroke:#5FBF00;stroke-width:27;}
	.st2{fill:none;stroke:#00BFBF;stroke-width:27;}
	.st3{fill:none;stroke:#FFFF00;stroke-width:27;}
	.st4{fill:none;stroke:#005FBF;stroke-width:27;}
	.st5{fill:none;stroke:#00FFFF;stroke-width:27;}
	.st6{fill:none;stroke:#00BF00;stroke-width:27;}
	.st7{fill:none;stroke:#7F3F00;stroke-width:27;}
	.st8{fill:none;stroke:#00007F;stroke-width:27;}
</style>
<g>
	<title>Layer 1</title>
	<line id="svg_13" class="st0" x1="255" y1="38.6" x2="317" y2="86.3"/>
	<line id="svg_14" class="st1" x1="201" y1="68.8" x2="275" y2="116.5"/>
	<line id="svg_15" class="st2" x1="196" y1="140.8" x2="280" y2="152.5"/>
	<line id="svg_16" class="st3" x1="289" y1="197.8" x2="359" y2="163.4"/>
	<line id="svg_17" class="st0" x1="328" y1="243" x2="408" y2="217.9"/>
	<line id="svg_18" class="st4" x1="342" y1="285.7" x2="425" y2="292.4"/>
	<line id="svg_19" class="st5" x1="321" y1="325.1" x2="392" y2="356.1"/>
	<line id="svg_20" class="st3" x1="282" y1="359.4" x2="347" y2="402.1"/>
	<line id="svg_21" class="st6" x1="229" y1="393.8" x2="286" y2="444"/>
	<line id="svg_22" class="st7" x1="193" y1="486.7" x2="272" y2="480.9"/>
	<line id="svg_23" class="st3" x1="260" y1="535.3" x2="333" y2="505.2"/>
	<path id="svg_11" class="st8" d="M304,18.5c-27,6.7-29.3,8.7-41,12.5c-3.8,1.3-9.8,3.7-18,7.5c-3.9,1.8-8.2,3-12,5
		c-5.4,2.9-7.5,4.5-10,6.7c-3.4,3-8.9,6.8-11,8.4c-5.8,4.4-7.9,6.7-10,9.2c-2.9,3.4-6.4,5.6-8,8.4c-1.4,2.4-3.4,4.7-5,6.7
		c-3,3.8-3.7,6.4-5,9.2c-2.2,4.7-1.8,7.6-3,10c-0.9,1.7-0.9,4.2-1,5c-0.5,4.2-1,6.7-1,8.4c0,2.5-0.1,5,1,7.5c1.9,4.2,2.3,6,4,9.2
		c1.5,2.8,3,4.2,5,5.8c2,1.7,3.7,2.7,5,4.2c1.7,1.9,4,3.3,6,5c2,1.7,3.7,3.5,5,5c1.7,1.9,5,3.3,7,4.2c2,0.8,4.2,2.3,7,4.2
		c2.2,1.5,5,3.3,6,4.2c2,1.7,6.2,3.9,9,5.8c1.1,0.7,3,2.5,7,4.2c2,0.8,5,4.2,8,5.8c3,1.7,7,4.2,10,5.8c3,1.7,6,3.4,9,5
		c4.9,2.6,7,5,10,6.7c3,1.7,7.4,4.5,11,6.7c3.4,2.1,4.7,4.4,7,6.7c3.6,3.7,6,5,8,7.5s6,5,8,7.5c2,2.5,3.7,5.3,7,7.5
		c2.8,1.9,4.3,3.6,6,5.8c1.5,2,5.2,4.9,7,7.5c1.1,1.6,2.1,4.1,3,6.7c1.2,3.3,2,6.7,3,9.2c1,2.5,1.5,5.9,2,8.4c0.5,2.6,1,5,1,8.4
		c0,2.5,0.5,5.9,0,8.4c-0.5,2.6-2.6,7.6-4,10.9c-0.8,1.8-2.6,5.1-4,7.5c-1.6,2.7-5.9,6.1-8,9.2c-2,3-6.5,7.1-9,10
		c-2.6,3-5,5.8-8,8.4c-3,2.5-6.3,5.6-10,9.2c-3.3,3.2-7.6,4.5-13,9.2c-3.4,3-8.4,5.4-15,10c-2.2,1.5-9.1,4.9-15,8.4
		c-4.1,2.4-10.8,6.9-13,8.4c-7.4,4.9-11.7,7.8-18,11.7c-2.9,1.8-9.2,5.6-13,8.4c-4.3,3.1-7.2,6.5-12,10c-4.2,3.2-7.6,6.2-11,9.2
		c-5,4.4-5,7.5-7,10.9s-3.4,6.6-5,11.7c-1.3,4.1-2,8.4-2,11.7c0,4.2-0.4,10,0,13.4c0.5,4.2,1.6,7.6,3,10.9c2.3,5.3,4.5,8.5,7,12.5
		c1.7,2.7,7.4,8.7,10,11.7c3.3,3.8,7.9,6.8,11,9.2c6.8,5.2,11.4,7,16,10c3.3,2.2,10.1,5.7,14,7.5c5.1,2.3,10.1,4.9,14,6.7
		c5.1,2.3,7.9,4.3,13,5.8c3,0.9,8.4,2.8,12,5c2.3,1.4,6.3,2.7,10,4.2c4.5,1.8,7.2,3.1,10,5c2.2,1.5,7.6,2.4,10,4.2
		c1.7,1.2,4.9,3.4,6,4.2c2.8,1.9,4.2,2.7,6,3.3c2.6,0.9,4.9,3.5,6,4.2c1.8,1.1,3.8,2.7,5,3.3c2.7,1.4,5.4,1.2,7,2.5s3.2,3.1,5,4.2
		c2.3,1.4,4,2.5,4,2.5c2,0.8,3,1.7,4,1.7v0.8h-1l-3-1.7"/>
</g>
</svg>
