<?xml version="1.0" encoding="utf-8"?>
<!-- Generator: Adobe Illustrator 22.1.0, SVG Export Plug-In . SVG Version: 6.00 Build 0)  -->
<svg version="1.1" id="图层_1" xmlns="http://www.w3.org/2000/svg" xmlns:xlink="http://www.w3.org/1999/xlink" x="0px" y="0px"
	 viewBox="0 0 600 600" style="enable-background:new 0 0 600 600;" xml:space="preserve">
<style type="text/css">
	.st0{opacity:0.5;fill:#7F0000;stroke:#000000;stroke-width:14;enable-background:new    ;}
	.st1{fill:none;stroke:#7F7F7F;stroke-width:14;}
	.st2{fill:none;}
</style>
<g>
	<path id="svg_2" class="st0" d="M339.5,280.5l190-73"/>
	<path id="svg_4" class="st1" d="M333.5,353.7c39.9,48.2,58.7,36.5,74-1.6s-28.7-36.9-48.3-36.4"/>
	<path id="svg_5" class="st1" d="M204,517.5c-18.3,59.8,1.8,69.1,42,60.9c40.2-8.2,15.1-44.2,3.9-60.4"/>
	<path id="svg_6" class="st1" d="M522.7,208.6c58.9,20.9,69.1,1.3,62.7-39.3s-43.5-17-60.2-6.5"/>
	<path id="svg_7" class="st1" d="M119,431.9c-61.6,10.8-60.8,32.9-35.3,65.1s46.3-6.6,55.6-24"/>
	<path id="svg_9_1_" class="st1" d="M528,163.1l-164.5,61.4c0,0-16-201-183-201c0,0-159,21-160,178s160.8,172.3,160.8,172.3
		l-14.7,29.3"/>
	<line id="svg_12" class="st1" x1="334.7" y1="279.1" x2="373.3" y2="321.8"/>
	<line id="svg_13" class="st1" x1="300" y1="321.8" x2="344" y2="363.1"/>
	<line id="svg_19" class="st1" x1="274.7" y1="341.8" x2="242.7" y2="401.8"/>
	<line id="svg_20" class="st1" x1="245.3" y1="397.8" x2="250.7" y2="523.1"/>
	<line id="svg_21" class="st1" x1="197.3" y1="409.8" x2="201.3" y2="528.5"/>
	<line id="svg_23" class="st1" x1="109.3" y1="437.8" x2="169.3" y2="397.8"/>
	<line id="svg_24" class="st1" x1="137.3" y1="480.5" x2="196" y2="416.5"/>
	<line id="svg_25" class="st1" x1="274.7" y1="343.1" x2="285.3" y2="388.5"/>
	<line id="svg_26" class="st1" x1="285.3" y1="388.5" x2="326.7" y2="377.8"/>
	<line id="svg_27" class="st1" x1="324" y1="381.8" x2="306.7" y2="329.8"/>
	<line id="svg_28" class="st2" x1="161.3" y1="449.8" x2="196" y2="472.5"/>
	<path id="svg_29" class="st2" d="M272,385.8c24,16,24,16,25.3,16s0,0-1.3,0l-1.3-1.3"/>
	<path id="svg_30" class="st2" d="M274.7,383.1c25.3,13.3,26.7,14.7,26.7,13.3H300l-1.3-2.7"/>
	<path id="svg_31" class="st2" d="M306.7,397.8c-3.6,2-3.8,2-3.6,1.8l0.2-0.2"/>
</g>
<path class="st1" d="M175.5,372.5c0,0,72-5,131-56"/>
</svg>
