<?xml version="1.0" encoding="utf-8"?>
<!-- Generator: Adobe Illustrator 22.1.0, SVG Export Plug-In . SVG Version: 6.00 Build 0)  -->
<svg version="1.1" id="图层_1" xmlns="http://www.w3.org/2000/svg" xmlns:xlink="http://www.w3.org/1999/xlink" x="0px" y="0px"
	 viewBox="0 0 600 600" style="enable-background:new 0 0 600 600;" xml:space="preserve">
<style type="text/css">
	.st0{fill:none;stroke:#00007F;stroke-width:14;}
	.st1{fill:none;stroke:#00007F;stroke-width:23;}
</style>
<g>
	<title>Layer 1</title>
	<path id="svg_1_1_" class="st0" d="M262.8,163.9c-27.4-13.5-46.2-41.3-46.2-73.3c0-45.3,37.7-82.1,84.2-82.1s84.2,36.8,84.2,82.1
		c0,33.2-20.2,61.8-49.2,74.7"/>
	<path id="svg_7_2_" class="st0" d="M266.1,158.6v90.1c0,0-75.6,23.6-76.6,92c0,0-9,88.6,80,104.7"/>
	<path id="svg_8_1_" class="st0" d="M332,158.6v92.6c0,0,79.9,17.1,81.5,92.6c1.2,57.4-22.1,80.5-76.6,105.7"/>
	<line id="svg_9" class="st0" x1="119.6" y1="593.2" x2="489.5" y2="593.2"/>
	<line id="svg_10" class="st0" x1="271" y1="440.1" x2="271" y2="588.3"/>
	<polyline id="svg_11" class="st0" points="336.9,438.9 336.9,449.5 336.9,592 	"/>
	<line id="svg_14" class="st1" x1="269.8" y1="182" x2="333.3" y2="182"/>
	<line id="svg_15" class="st1" x1="263.7" y1="220.3" x2="328.4" y2="220.3"/>
	<line id="svg_16" class="st1" x1="268.5" y1="475.9" x2="333.3" y2="475.9"/>
	<line id="svg_17" class="st1" x1="267.3" y1="526.5" x2="338.1" y2="526.5"/>
</g>
<path class="st0" d="M290.5,161.5"/>
</svg>
