<?xml version="1.0" encoding="utf-8"?>
<!-- Generator: Adobe Illustrator 22.1.0, SVG Export Plug-In . SVG Version: 6.00 Build 0)  -->
<svg version="1.1" id="图层_1" xmlns="http://www.w3.org/2000/svg" xmlns:xlink="http://www.w3.org/1999/xlink" x="0px" y="0px"
	 viewBox="0 0 600 600" style="enable-background:new 0 0 600 600;" xml:space="preserve">
<style type="text/css">
	.st0{fill:none;stroke:#00007F;stroke-width:14;}
	.st1{fill:none;stroke:#00007F;stroke-width:23;}
</style>
<g>
	<title>Layer 1</title>
	<path id="svg_1_3_" class="st0" d="M448.9,421.5c-34.5-11.2-59.5-43.3-59.5-81.3c0-47.2,38.7-85.5,86.3-85.5S562,293,562,340.2
		c0,35.4-21.7,65.8-52.7,78.8"/>
	<path id="svg_1_2_" class="st0" d="M475.7,425.7"/>
	<path id="svg_3_1_" class="st0" d="M177.8,351.5c-44.2-13.4-76.2-53.4-76.2-100.6c0-58.2,48.7-105.4,108.9-105.4
		s108.9,47.2,108.9,105.4c0,53.3-29.6,84-71.1,98.9"/>
	<line id="svg_9_4_" class="st0" x1="501.5" y1="512" x2="603.3" y2="511.8"/>
	<line id="svg_9_3_" class="st0" x1="239.5" y1="512.5" x2="452.5" y2="512.1"/>
	<path id="svg_9_1_" class="st0" d="M1.5,511.8c0,0,136,0,184,0"/>
	<line id="svg_7" class="st0" x1="443.2" y1="414.1" x2="443.2" y2="507.9"/>
	<line id="svg_8" class="st0" x1="510.7" y1="414.1" x2="510.7" y2="510.5"/>
	<line id="svg_10" class="st0" x1="177.9" y1="342.5" x2="177.9" y2="505.4"/>
	<line id="svg_11" class="st0" x1="245.5" y1="343.5" x2="245.5" y2="509.2"/>
	<line id="svg_14" class="st1" x1="446.9" y1="438.5" x2="512" y2="438.5"/>
	<line id="svg_15" class="st1" x1="440.7" y1="478.4" x2="507" y2="478.4"/>
	<line id="svg_16" class="st1" x1="175.4" y1="388.4" x2="241.7" y2="388.4"/>
	<line id="svg_17" class="st1" x1="174.2" y1="441.1" x2="246.7" y2="441.1"/>
	<ellipse id="svg_19" class="st0" cx="300.5" cy="438.5" rx="30" ry="27"/>
	<line id="svg_20" class="st0" x1="300.5" y1="468.1" x2="299.3" y2="515.7"/>
	<ellipse id="svg_21" class="st0" cx="369.4" cy="437.9" rx="26.3" ry="26.3"/>
	<line id="svg_22" class="st0" x1="369.4" y1="460.4" x2="369.4" y2="514.4"/>
</g>
</svg>
