<?xml version="1.0" encoding="utf-8"?>
<!-- Generator: Adobe Illustrator 22.1.0, SVG Export Plug-In . SVG Version: 6.00 Build 0)  -->
<svg version="1.1" id="图层_1" xmlns="http://www.w3.org/2000/svg" xmlns:xlink="http://www.w3.org/1999/xlink" x="0px" y="0px"
	 viewBox="0 0 600 600" style="enable-background:new 0 0 600 600;" xml:space="preserve">
<style type="text/css">
	.st0{fill:none;stroke:#000000;stroke-width:14;}
	.st1{fill:none;stroke:#FFFFFF;stroke-width:29;}
	.st2{fill:none;stroke:#000000;stroke-width:15;}
	.st3{fill:#FFFFFF;stroke:#000000;stroke-width:15;}
</style>
<g>
	<title>Layer 1</title>
	<path id="svg_1_1_" class="st0" d="M364.2,152.4c-5.2-8.2-8.2-18-8.2-28.4c0-29.2,23.4-52.8,52.2-52.8s52.2,23.7,52.2,52.8
		s-23.4,52.8-52.2,52.8c-12.5,0-23.9-4.4-32.9-11.8"/>
	<path id="svg_3_1_" class="st1" d="M350.6,182.1"/>
	<line id="svg_4" class="st2" x1="270.4" y1="218.3" x2="360" y2="142"/>
	<line id="svg_6" class="st2" x1="275.7" y1="216.9" x2="68.3" y2="4.2"/>
	<line id="svg_7" class="st2" x1="85.7" y1="109.9" x2="275.7" y2="298.5"/>
	<line id="svg_9" class="st2" x1="274.4" y1="361.4" x2="172.7" y2="460.4"/>
	<line id="svg_10" class="st2" x1="267.7" y1="362.7" x2="346.6" y2="389.5"/>
	<line id="svg_11" class="st2" x1="342.6" y1="380.1" x2="432.2" y2="499.2"/>
	<line id="svg_12" class="st2" x1="311.8" y1="235.6" x2="385.4" y2="168.8"/>
	<line id="svg_13" class="st2" x1="315.8" y1="235.6" x2="356" y2="278.5"/>
	<line id="svg_14" class="st2" x1="353.3" y1="271.8" x2="421.5" y2="270.4"/>
	<line id="svg_15" class="st2" x1="414.8" y1="270.4" x2="433.6" y2="295.8"/>
	<line id="svg_16" class="st2" x1="430.9" y1="290.5" x2="372" y2="345.3"/>
	<line id="svg_17" class="st2" x1="369.4" y1="342.7" x2="471" y2="471.1"/>
	<path id="svg_18_1_" class="st3" d="M171.5,447.5c11.5,10.8,18.6,25.3,18.6,42.4c0,34.7-29.3,62.9-65.6,62.9s-67-28.2-65.6-62.9
		c1.5-35.2,39.2-65.8,65.6-62.9c8.5,0.9,16.7,3,24.2,6.1"/>
	<line id="svg_8" class="st2" x1="273" y1="290.5" x2="143.3" y2="427"/>
	<path id="svg_19_1_" class="st3" d="M458.6,471.7c8.2-3.8,17.4-5.9,27.2-5.9c35.5,0,64.2,28.5,64.2,63.5s-28.8,63.5-64.2,63.5
		s-64.2-28.5-64.2-63.5c0-16,6-30.7,15.9-41.9"/>
</g>
</svg>
