<svg id="图层_1" data-name="图层 1" xmlns="http://www.w3.org/2000/svg" viewBox="0 0 278 420"><rect x="0.5" y="0.5" width="277" height="419" rx="20" style="fill:#29abe2;stroke:#000;stroke-miterlimit:10"/><rect x="12.5" y="10.5" width="255" height="398" rx="20" style="fill:#ffea2a;stroke:#000;stroke-miterlimit:10"/><ellipse cx="76.85" cy="64" rx="48.65" ry="26.5" style="fill:#ffea2a;stroke:#000;stroke-miterlimit:10"/><path d="M378,210.23c.93.32,5.92-24.31,8.73-23.68s.87,23.49,3.36,24,6.67-23.61,9.41-23.11c2.59.47,1.54,22.49,3.81,22.82s5.45-22,7.84-21.68,1.91,20.7,3.58,20.83,3.13-20.5,5.83-20.54,3.61,18.77,6.5,18.83,5.23-17.87,4.92-18-2.71,13.13-4.48,12.84c-2-.33-.75-18.07-4.25-19.11-2.51-.75-5.2,7.72-7.84,6.84s-2.24-10.61-3.81-10.84c-2.25-.32-5,19.35-7.17,19.12s-1.88-22.18-4.48-22.54-5.15,19.66-8.07,19.4c-3.09-.28-2.82-23.07-5.6-23.4C382.65,171.58,376.83,209.85,378,210.23Z" transform="translate(-328 -127)" style="fill:#29abe2;stroke:#000;stroke-miterlimit:10"/><ellipse cx="142.5" cy="57" rx="4" ry="2.5" style="fill:#29abe2;stroke:#000;stroke-miterlimit:10"/><ellipse cx="130.5" cy="82" rx="5" ry="2.5" style="fill:#29abe2;stroke:#000;stroke-miterlimit:10"/><ellipse cx="240" cy="68.5" rx="5.5" ry="4" style="fill:#29abe2;stroke:#000;stroke-miterlimit:10"/><path d="M474.59,199.56l9.59-.92c13-1.07,65.81-11.18,84.68-28,1.39-1.23,5.38-5,7.19-4.59s.36,5.32,0,6.43c-4.84,15-59,39.84-99.06,33.53-5.82-.91-16.39-3.29-16-4.59C461.18,200.86,465.66,200.42,474.59,199.56Z" transform="translate(-328 -127)" style="fill:#29abe2;stroke:#000;stroke-miterlimit:10"/><path d="M464.88,218l10.5-.49c14.26-.58,72-6,92.71-15,1.52-.66,5.89-2.68,7.88-2.46s.39,2.85,0,3.45c-5.31,8.06-64.63,21.38-108.46,18-6.37-.49-17.95-1.77-17.5-2.47C450.2,218.71,455.1,218.47,464.88,218Z" transform="translate(-328 -127)" style="fill:#29abe2;stroke:#000;stroke-miterlimit:10"/><path d="M461.29,227.92l11.49-.63c15.6-.73,78.85-7.64,101.47-19.13,1.66-.85,6.44-3.41,8.62-3.14s.43,3.63,0,4.39c-5.81,10.27-70.74,27.21-118.71,22.9-7-.62-19.64-2.24-19.15-3.13C445.22,228.81,450.58,228.51,461.29,227.92Z" transform="translate(-328 -127)" style="fill:#29abe2;stroke:#000;stroke-miterlimit:10"/><ellipse cx="375.37" cy="315.54" rx="4.69" ry="8.91" transform="translate(-417.8 33.36) rotate(-21.6)" style="stroke:#000;stroke-miterlimit:10"/><ellipse cx="375.32" cy="314.94" rx="2.9" ry="5.46" transform="translate(-411.58 16.28) rotate(-19.49)" style="fill:#f7931e;stroke:#000;stroke-miterlimit:10"/><polyline points="42.11 183.16 58.01 119.48 59.56 120.65" style="fill:#f7931e;stroke:#000;stroke-miterlimit:10"/><polyline points="46.49 180 62.38 116.32 64.21 117.22 60.64 116.32 44.75 180" style="fill:#f7931e;stroke:#000;stroke-miterlimit:10"/><polyline points="49.97 183.38 65.86 119.7 64.12 117.45 48.23 181.13" style="fill:#f7931e;stroke:#000;stroke-miterlimit:10"/><polyline points="52.7 194.66 68.59 130.97 66.69 128.26 67.84 123.65 51.95 187.33" style="fill:#f7931e;stroke:#000;stroke-miterlimit:10"/><line x1="67.94" y1="123.42" x2="65.95" y2="119.48" style="fill:none;stroke:#000;stroke-miterlimit:10"/><ellipse cx="370.76" cy="253.81" rx="14.08" ry="4.26" transform="translate(-281.43 437.92) rotate(-78.21)" style="stroke:#000;stroke-miterlimit:10"/><ellipse cx="371.08" cy="253.82" rx="8.48" ry="2.67" transform="translate(-277.99 441.53) rotate(-78.8)" style="fill:#f7931e;stroke:#000;stroke-miterlimit:10"/><polyline points="46.79 114.07 75.99 171.47 75.01 175.35" style="fill:#f7931e;stroke:#000;stroke-miterlimit:10"/><polyline points="47.38 126.48 76.59 183.88 75.69 188.55 77 179.25 47.8 121.85" style="fill:#f7931e;stroke:#000;stroke-miterlimit:10"/><polyline points="44.81 134.95 74.02 192.35 75.59 188.25 46.39 130.85" style="fill:#f7931e;stroke:#000;stroke-miterlimit:10"/><polyline points="38.33 139.56 67.54 196.96 69.39 192.55 71.5 196.71 42.3 139.31" style="fill:#f7931e;stroke:#000;stroke-miterlimit:10"/><line x1="71.41" y1="196.68" x2="73.31" y2="190.96" style="fill:#f7931e;stroke:#000;stroke-miterlimit:10"/><ellipse cx="229" cy="384.5" rx="6.5" ry="5" style="stroke:#000;stroke-miterlimit:10"/><ellipse cx="229" cy="394" rx="11.5" ry="6.5" style="stroke:#000;stroke-miterlimit:10"/><ellipse cx="104" cy="316.5" rx="72.5" ry="60" style="fill:#f7931e"/><ellipse cx="104.5" cy="316" rx="64" ry="52.5" style="fill:#e2ff1f;stroke:#000;stroke-miterlimit:10"/><ellipse cx="115" cy="305" rx="29.5" ry="26.5" style="fill:#ff5fd4;stroke:#000;stroke-miterlimit:10"/><polyline points="44.83 281.82 51.09 287.06 59.72 278.5 53.93 273.1" style="fill:#ffea2a"/><polyline points="91.42 367.4 91.42 375.6 108.01 376.41 108.5 367.5" style="fill:#ffea2a"/><polyline points="167.09 305 175.17 305 176.5 321.15 168.19 321.15" style="fill:#ffea2a"/><path d="M489.15,399.3c4.56,9.72,8.47,19.88,23,26.46,10.83,4.89,23.37,5.91,24.13,4.87,1.16-1.59-24.95-8.51-23-14.27.61-1.84,4-3.33,7.13-3.48,10.85-.53,18.45,15.07,21.93,14.27,2.73-.63,3.15-11.45-6-16.36-3.43-1.83-7.55-2.5-8.23-4.87-.53-1.87,1.2-4.3,3.84-4.88,5.15-1.12,13.29,4.94,17,8.36,6.11,5.63,6.4,9.81,10.41,10.09,2.74.2,6.52-1.47,7.13-3.48,1.89-6.24-28.13-11.52-26.86-19.14.44-2.66,4.65-5.42,8.77-5.57,12.17-.47,19.32,21.9,28.51,21.23,4.82-.35,7.91-6.88,8.77-10.79,6.66-30.28-84.22-68.76-91-64.4-4.84,3.1,42.65,35.83,40,37.25s-50.33-32.85-53.18-31.33,43.82,39.57,42.22,40.38S475,346.15,470.51,348.13c-4.69,2.09,40.39,48,39.48,48.39s-43.5-46.61-48.8-44.91C458.14,352.59,474.27,367.57,489.15,399.3Z" transform="translate(-328 -127)" style="fill:#4400f4;stroke:#29abe2;stroke-miterlimit:10"/><ellipse cx="516.46" cy="338.1" rx="2.54" ry="7.39" transform="translate(-415.36 339.29) rotate(-45.2)" style="stroke:#000;stroke-miterlimit:10"/><ellipse cx="520.93" cy="333.98" rx="2.84" ry="4.78" transform="translate(-411.13 341.25) rotate(-45.2)" style="stroke:#000;stroke-miterlimit:10"/><ellipse cx="561.01" cy="361.91" rx="3.68" ry="7.98" transform="translate(-395.44 460.22) rotate(-52.55)" style="stroke:#000;stroke-miterlimit:10"/><ellipse cx="564.35" cy="357.41" rx="2.83" ry="4.51" transform="translate(-390.55 461.1) rotate(-52.55)" style="stroke:#000;stroke-miterlimit:10"/><ellipse cx="583.78" cy="383.95" rx="2.83" ry="7.95" transform="matrix(0.56, -0.83, 0.83, 0.56, -388.63, 527.06)" style="stroke:#000;stroke-miterlimit:10"/><ellipse cx="586.12" cy="380.32" rx="2.18" ry="4.49" transform="translate(-384.58 527.39) rotate(-56.07)" style="stroke:#000;stroke-miterlimit:10"/><ellipse cx="555.43" cy="405.12" rx="1.86" ry="7.06" transform="translate(-447.68 407.91) rotate(-46.99)" style="stroke:#000;stroke-miterlimit:10"/><ellipse cx="557.31" cy="402.99" rx="1.43" ry="3.99" transform="translate(-445.53 408.6) rotate(-46.99)" style="stroke:#000;stroke-miterlimit:10"/><ellipse cx="496.46" cy="350.04" rx="1.64" ry="7.06" transform="translate(-426.15 347.28) rotate(-46.99)" style="stroke:#000;stroke-miterlimit:10"/><ellipse cx="498.12" cy="348.16" rx="1.26" ry="3.99" transform="translate(-424.25 347.89) rotate(-46.99)" style="stroke:#000;stroke-miterlimit:10"/><ellipse cx="484.13" cy="354.4" rx="1.86" ry="7.06" transform="translate(-433.26 339.65) rotate(-46.99)" style="stroke:#000;stroke-miterlimit:10"/><ellipse cx="486" cy="352.28" rx="1.43" ry="3.99" transform="translate(-431.11 340.34) rotate(-46.99)" style="stroke:#000;stroke-miterlimit:10"/><ellipse cx="540.13" cy="410.4" rx="1.86" ry="7.06" transform="translate(-456.41 398.4) rotate(-46.99)" style="stroke:#000;stroke-miterlimit:10"/><ellipse cx="542" cy="408.28" rx="1.43" ry="3.99" transform="translate(-454.26 399.09) rotate(-46.99)" style="stroke:#000;stroke-miterlimit:10"/><ellipse cx="523.13" cy="423.4" rx="1.86" ry="7.06" transform="translate(-471.32 390.1) rotate(-46.99)" style="stroke:#000;stroke-miterlimit:10"/><ellipse cx="525" cy="421.28" rx="1.43" ry="3.99" transform="translate(-469.17 390.79) rotate(-46.99)" style="stroke:#000;stroke-miterlimit:10"/><ellipse cx="468.13" cy="354.4" rx="1.86" ry="7.06" transform="translate(-438.35 327.95) rotate(-46.99)" style="stroke:#000;stroke-miterlimit:10"/><ellipse cx="470" cy="352.28" rx="1.43" ry="3.99" transform="translate(-436.2 328.65) rotate(-46.99)" style="stroke:#000;stroke-miterlimit:10"/></svg>