<svg id="图层_1" data-name="图层 1" xmlns="http://www.w3.org/2000/svg" viewBox="0 0 471 511.5"><polygon points="28.49 0.5 28.49 149.1 0.5 149.1 0.5 164.26 28.49 164.26 28.49 437.2 28.49 511 54.15 511 54.15 470.56 377.2 466.52 377.2 511 393.53 511 393.53 286.58 470.5 286.58 470.5 269.4 394.69 269.4 392.36 0.5 365.54 0.5 365.54 21.73 54.15 21.73 54.15 0.5 28.49 0.5" style="fill:lime;stroke:#000;stroke-miterlimit:10"/><rect x="53.63" y="28.21" width="323.45" height="429.95" rx="20" style="fill:#29abe2;stroke:#000;stroke-miterlimit:10"/><rect x="67.64" y="38.47" width="297.76" height="408.4" rx="20" style="fill:#ffea2a;stroke:#000;stroke-miterlimit:10"/><polyline points="105.39 316.88 112.71 322.26 122.78 313.47 116.03 307.93" style="fill:#ffea2a"/><polyline points="159.8 404.69 159.8 413.11 179.16 413.94 179.74 404.8" style="fill:#ffea2a"/><polyline points="248.16 340.66 257.59 340.66 259.15 357.23 249.45 357.23" style="fill:#ffea2a"/></svg>