<svg id="图层_1" data-name="图层 1" xmlns="http://www.w3.org/2000/svg" viewBox="0 0 471 511.5"><polygon points="28.49 0.5 28.49 149.1 0.5 149.1 0.5 164.26 28.49 164.26 28.49 437.2 28.49 511 54.15 511 54.15 470.56 377.2 466.52 377.2 511 393.53 511 393.53 286.58 470.5 286.58 470.5 269.4 394.69 269.4 392.36 0.5 365.54 0.5 365.54 21.73 54.15 21.73 54.15 0.5 28.49 0.5" style="fill:lime;stroke:#000;stroke-miterlimit:10"/><rect x="53.63" y="28.21" width="323.45" height="429.95" rx="20" style="fill:#29abe2;stroke:#000;stroke-miterlimit:10"/><rect x="67.64" y="38.47" width="297.76" height="408.4" rx="20" style="fill:#ffea2a;stroke:#000;stroke-miterlimit:10"/><ellipse cx="142.79" cy="93.36" rx="56.81" ry="27.19" style="fill:#ffea2a;stroke:#000;stroke-miterlimit:10"/><path d="M393.91,213.1c1.09.32,6.92-24.95,10.21-24.3,3.12.63,1,24.1,3.92,24.59s7.78-24.22,11-23.71c3,.49,1.79,23.08,4.44,23.42s6.37-22.59,9.16-22.25c2.64.33,2.23,21.25,4.19,21.37s3.65-21,6.8-21.08,4.22,19.27,7.58,19.33S457.31,192.13,457,192s-3.18,13.47-5.23,13.18c-2.37-.34-.89-18.55-5-19.62-2.93-.76-6.08,7.93-9.16,7s-2.61-10.9-4.45-11.13c-2.63-.33-5.81,19.85-8.37,19.62s-2.2-22.76-5.23-23.13-6,20.18-9.42,19.91c-3.61-.29-3.3-23.68-6.54-24C399.36,173.44,392.57,212.7,393.91,213.1Z" transform="translate(-282.5 -100)" style="fill:#29abe2;stroke:#000;stroke-miterlimit:10"/><ellipse cx="219.44" cy="86.18" rx="4.67" ry="2.57" style="fill:#29abe2;stroke:#000;stroke-miterlimit:10"/><ellipse cx="205.43" cy="111.84" rx="5.84" ry="2.57" style="fill:#29abe2;stroke:#000;stroke-miterlimit:10"/><ellipse cx="333.3" cy="97.98" rx="6.42" ry="4.1" style="fill:#29abe2;stroke:#000;stroke-miterlimit:10"/><path d="M506.72,202.15l11.2-.94c15.2-1.11,76.84-11.48,98.88-28.75,1.62-1.27,6.28-5.13,8.4-4.72s.42,5.46,0,6.6c-5.65,15.43-68.93,40.88-115.68,34.41-6.79-.94-19.14-3.38-18.66-4.71C491.07,203.48,496.29,203,506.72,202.15Z" transform="translate(-282.5 -100)" style="fill:#29abe2;stroke:#000;stroke-miterlimit:10"/><path d="M495.38,221.08l12.26-.51c16.65-.59,84.13-6.16,108.26-15.42,1.78-.69,6.87-2.75,9.2-2.53s.45,2.93,0,3.54c-6.19,8.28-75.47,21.93-126.65,18.46-7.44-.5-21-1.81-20.43-2.53C478.24,221.79,484,221.55,495.38,221.08Z" transform="translate(-282.5 -100)" style="fill:#29abe2;stroke:#000;stroke-miterlimit:10"/><path d="M491.19,231.25l13.41-.64c18.22-.76,92.08-7.84,118.5-19.64,1.94-.87,7.51-3.5,10.06-3.22,2.7.3.5,3.73,0,4.51-6.78,10.53-82.6,27.92-138.62,23.5-8.14-.65-22.94-2.31-22.36-3.22C472.42,232.16,478.68,231.85,491.19,231.25Z" transform="translate(-282.5 -100)" style="fill:#29abe2;stroke:#000;stroke-miterlimit:10"/><ellipse cx="109.1" cy="427.37" rx="7.59" ry="5.13" style="stroke:#000;stroke-miterlimit:10"/><ellipse cx="109.1" cy="436.09" rx="13.43" ry="6.67" style="stroke:#000;stroke-miterlimit:10"/><ellipse cx="174.49" cy="352.46" rx="84.66" ry="61.57" style="fill:#f7931e"/><ellipse cx="175.07" cy="351.95" rx="74.73" ry="53.87" style="fill:#e2ff1f;stroke:#000;stroke-miterlimit:10"/><ellipse cx="187.33" cy="340.66" rx="34.45" ry="27.19" style="fill:#ff5fd4;stroke:#000;stroke-miterlimit:10"/><polyline points="105.39 316.88 112.71 322.26 122.78 313.47 116.03 307.93" style="fill:#ffea2a"/><polyline points="159.8 404.69 159.8 413.11 179.16 413.94 179.74 404.8" style="fill:#ffea2a"/><polyline points="248.16 340.66 257.59 340.66 259.15 357.23 249.45 357.23" style="fill:#ffea2a"/><path d="M427.59,379.7c11,5.28,21.7,11.32,40,7.93,13.58-2.52,26.09-9.28,26.09-10.6,0-2-29.37,8.08-31.55,2.16-.69-1.9,1.48-5.19,4.32-7.21,9.85-7,27.78,1.28,30.5-1.49,2.14-2.18-4.93-11.39-17-9.88-4.49.56-8.83,2.51-11.11.95-1.79-1.22-1.84-4.28.25-6.36,4.08-4.06,15.92-4,21.78-3.39,9.65.95,12.8,4.23,16.78,2,2.71-1.5,5.12-5.17,4.31-7.2-2.53-6.31-34.45,7.53-38.52.45-1.42-2.47.64-7.3,4.41-9.93,11.15-7.77,33.32,6.41,41.51.28,4.3-3.22,2.71-10.5.82-14.26-14.63-29.1-126.78-5.82-130.18,1.91-2.41,5.5,64.91,3.79,63.41,6.55S383.31,335,381.67,338s68.6,6.17,67.64,7.81-71.78-1.45-74.6,2.88c-3,4.57,71.2,15.25,70.58,16.1s-73.14-12.19-77-7.57C366.13,359.86,391.66,362.46,427.59,379.7Z" transform="translate(-282.5 -100)" style="fill:#4400f4;stroke:#29abe2;stroke-miterlimit:10"/><path d="M539,274c-15.45,26.78-6.38,65.82,9.46,89.42,8.7,12.95,10,7.22,33.9,34.39,10.08,11.46,14.57,17.86,20.5,17.19,4.68-.53,11.76-5.64,18.92-33.53,6.86-26.69,27.29-106.23-7.88-129-18.3-11.83-49.32-6.77-67,11.17A51.8,51.8,0,0,0,539,274Z" transform="translate(-282.5 -100)" style="fill:#29abe2;stroke:#000;stroke-miterlimit:10"/><ellipse cx="316.5" cy="393.5" rx="45.5" ry="29" style="fill:#22b573;stroke:#000;stroke-miterlimit:10"/><ellipse cx="317.5" cy="394" rx="41.5" ry="26.5" style="fill:lime;stroke:#000;stroke-miterlimit:10"/><ellipse cx="312.01" cy="377.86" rx="7.13" ry="1.86" style="fill:#22b573;stroke:#000;stroke-miterlimit:10;stroke-width:0.25px"/><ellipse cx="311.77" cy="379.48" rx="7.13" ry="1.86" style="fill:#22b573;stroke:#000;stroke-miterlimit:10;stroke-width:0.25px"/><ellipse cx="311.77" cy="381.34" rx="7.13" ry="1.86" style="fill:#22b573;stroke:#000;stroke-miterlimit:10;stroke-width:0.25px"/><ellipse cx="297.87" cy="398.75" rx="7.13" ry="1.86" style="fill:#22b573;stroke:#000;stroke-miterlimit:10;stroke-width:0.25px"/><ellipse cx="297.63" cy="400.37" rx="7.13" ry="1.86" style="fill:#22b573;stroke:#000;stroke-miterlimit:10;stroke-width:0.25px"/><ellipse cx="297.63" cy="402.23" rx="7.13" ry="1.86" style="fill:#22b573;stroke:#000;stroke-miterlimit:10;stroke-width:0.25px"/><ellipse cx="342.1" cy="386.21" rx="7.13" ry="1.86" style="fill:#22b573;stroke:#000;stroke-miterlimit:10;stroke-width:0.25px"/><ellipse cx="341.86" cy="387.83" rx="7.13" ry="1.86" style="fill:#22b573;stroke:#000;stroke-miterlimit:10;stroke-width:0.25px"/><ellipse cx="341.86" cy="389.69" rx="7.13" ry="1.86" style="fill:#22b573;stroke:#000;stroke-miterlimit:10;stroke-width:0.25px"/><ellipse cx="327.85" cy="406.64" rx="7.13" ry="1.86" style="fill:#22b573;stroke:#000;stroke-miterlimit:10;stroke-width:0.25px"/><ellipse cx="327.6" cy="408.27" rx="7.13" ry="1.86" style="fill:#22b573;stroke:#000;stroke-miterlimit:10;stroke-width:0.25px"/><ellipse cx="327.6" cy="410.13" rx="7.13" ry="1.86" style="fill:#22b573;stroke:#000;stroke-miterlimit:10;stroke-width:0.25px"/><polyline points="304.64 402.94 320.72 409.64 320.37 408.28 304.64 402.24" style="fill:#22b573;stroke:#000;stroke-miterlimit:10;stroke-width:0.25px"/><polyline points="298.71 396.89 305.78 382.35 307.39 382.81 299.73 396.67" style="fill:#22b573;stroke:#000;stroke-miterlimit:10;stroke-width:0.25px"/><polyline points="318.89 379.48 335.11 385.99 334.62 386.91 318.89 380.3" style="fill:#22b573;stroke:#000;stroke-miterlimit:10;stroke-width:0.25px"/><polyline points="339.24 391.55 329.45 404.83 331.2 405 340.37 391.55" style="fill:#22b573;stroke:#000;stroke-miterlimit:10;stroke-width:0.25px"/></svg>